Coordinates
version=1
nRows=9
nColumns=63
inDegrees=yes

Units are S.I. units (second, meters, Newtons, ...)
If the header above contains a line with 'inDegrees', this indicates whether rotational values are in degrees (yes) or radians (no).

endheader
time	pelvis_tilt	pelvis_list	pelvis_rotation	pelvis_tx	pelvis_ty	pelvis_tz	hip_flexion_r	hip_adduction_r	hip_rotation_r	knee_angle_r	knee_angle_r_beta	ankle_angle_r	subtalar_angle_r	mtp_angle_r	hip_flexion_l	hip_adduction_l	hip_rotation_l	knee_angle_l	knee_angle_l_beta	ankle_angle_l	subtalar_angle_l	mtp_angle_l	L5_S1_Flex_Ext	L5_S1_Lat_Bending	L5_S1_axial_rotation	L4_L5_Flex_Ext	L4_L5_Lat_Bending	L4_L5_axial_rotation	L3_L4_Flex_Ext	L3_L4_Lat_Bending	L3_L4_axial_rotation	L2_L3_Flex_Ext	L2_L3_Lat_Bending	L2_L3_axial_rotation	L1_L2_Flex_Ext	L1_L2_Lat_Bending	L1_L2_axial_rotation	L1_T12_Flex_Ext	L1_T12_Lat_Bending	L1_T12_axial_rotation	Abs_r3	Abs_r2	Abs_r1	Abs_t1	Abs_t2	neck_flexion	neck_bending	neck_rotation	arm_flex_r	arm_add_r	arm_rot_r	elbow_flex_r	pro_sup_r	wrist_flex_r	wrist_dev_r	arm_flex_l	arm_add_l	arm_rot_l	elbow_flex_l	pro_sup_l	wrist_flex_l	wrist_dev_l
0.000000	-2.389607	-2.093945	92.299789	0.194829	0.821930	0.542653	4.232537	-1.313253	4.348857	12.301209	0.214697	39.914581	-8.651803	0.000000	3.762206	2.037133	21.447538	6.295447	0.109876	39.207599	-16.132742	0.000000	0.425451	-0.406677	-0.328198	0.790104	-0.540881	-0.348710	0.698973	-0.988795	-0.348710	0.486247	-0.988795	-0.287173	0.395073	-0.829296	-0.266661	0.243102	-0.629943	-0.246148	3.038951	-4.600414	-1.825338	0.000000	0.000000	27.296683	6.313254	-2.417552	20.805302	-0.961620	72.526241	40.481475	48.679697	7.127019	8.690208	18.384521	-5.001874	83.428889	36.136793	63.455476	-0.699204	6.735306
0.016667	-2.681019	-2.357483	92.271185	0.192826	0.822398	0.545678	5.438072	-1.976781	3.247871	13.526875	0.236089	40.435516	-7.271195	0.000000	4.698054	2.684920	20.968682	6.824521	0.119110	39.330512	-15.987137	0.000000	0.422012	-0.406154	-0.303726	0.783719	-0.540185	-0.322708	0.693324	-0.987523	-0.322708	0.482318	-0.987523	-0.265760	0.391881	-0.828229	-0.246777	0.241138	-0.629133	-0.227794	3.014393	-4.594496	-1.689231	0.000000	0.000000	27.360359	6.035568	-1.882893	19.851260	-1.566879	71.220881	40.833617	42.683393	6.377580	7.804811	17.760358	-5.790142	79.087826	38.018625	61.915712	0.806035	8.420350
0.033333	-2.907771	-2.569112	92.241641	0.191200	0.822800	0.548184	6.410357	-2.502610	2.374352	14.503721	0.253138	40.836774	-6.141336	0.000000	5.443219	3.197838	20.633953	7.233433	0.126247	39.403583	-15.922821	0.000000	0.418841	-0.403748	-0.284138	0.777829	-0.536984	-0.301897	0.688113	-0.981672	-0.301897	0.478693	-0.981672	-0.248621	0.388935	-0.823322	-0.230862	0.239326	-0.625405	-0.213104	2.991737	-4.567273	-1.580291	0.000000	0.000000	27.395081	5.800286	-1.413559	19.081333	-2.047262	70.105800	41.073814	38.314689	5.745776	7.049156	17.301432	-6.457656	75.452783	39.641581	61.316312	1.974920	9.831997
0.050000	-3.074883	-2.733638	92.211584	0.189922	0.823140	0.550215	7.169208	-2.901877	1.709731	15.251747	0.266193	41.128886	-5.242502	0.000000	6.017455	3.587013	20.423045	7.538137	0.131565	39.436412	-15.923358	0.000000	0.415944	-0.399611	-0.268880	0.772449	-0.531483	-0.285685	0.683354	-0.971614	-0.285685	0.475382	-0.971614	-0.235270	0.386245	-0.814887	-0.218465	0.237670	-0.618997	-0.201660	2.971044	-4.520480	-1.495431	0.000000	0.000000	27.404572	5.603608	-1.006278	18.477646	-2.415483	69.160149	41.216919	35.427281	5.221079	6.408654	16.991276	-7.013817	72.469401	41.023352	61.538905	2.843157	10.989482
0.066667	-3.187377	-2.855868	92.181441	0.188960	0.823421	0.551814	7.734441	-3.185724	1.235439	15.790953	0.275604	41.322384	-4.554969	0.000000	6.440513	3.863574	20.315649	7.754590	0.135343	39.438600	-15.972310	0.000000	0.413330	-0.393898	-0.257396	0.767594	-0.523884	-0.273484	0.679059	-0.957723	-0.273484	0.472394	-0.957723	-0.225222	0.383818	-0.803237	-0.209135	0.236177	-0.610148	-0.193047	2.952372	-4.455852	-1.431561	0.000000	0.000000	27.392557	5.441732	-0.657778	18.022325	-2.684255	68.363081	41.277784	33.874866	4.792963	5.868719	16.813422	-7.468024	70.083321	42.181631	62.465116	3.446452	11.912045
0.083333	-3.250274	-2.940607	92.151639	0.188284	0.823648	0.553023	8.125870	-3.365288	0.932910	16.141337	0.281719	41.427800	-4.059015	0.000000	6.732149	4.038645	20.291457	7.898746	0.137859	39.419747	-16.053241	0.000000	0.411007	-0.386762	-0.249131	0.763281	-0.514393	-0.264702	0.675243	-0.940372	-0.264702	0.469740	-0.940372	-0.217990	0.381661	-0.788685	-0.202419	0.234849	-0.599094	-0.186848	2.935782	-4.375126	-1.385593	0.000000	0.000000	27.362759	5.310857	-0.364786	17.697496	-2.866289	67.693747	41.271259	33.511140	4.450903	5.414765	16.751403	-7.829677	68.240185	43.134110	63.976575	3.820513	12.618920
0.100000	-3.268596	-2.992660	92.122605	0.187860	0.823825	0.553887	8.363311	-3.451711	0.783575	16.322900	0.284888	41.455667	-3.734914	0.000000	6.912116	4.123355	20.330161	7.986562	0.139392	39.389455	-16.149714	0.000000	0.408984	-0.378356	-0.243529	0.759524	-0.503213	-0.258750	0.671920	-0.919934	-0.258750	0.467428	-0.919934	-0.213088	0.379783	-0.771543	-0.197867	0.233694	-0.586073	-0.182647	2.921333	-4.280037	-1.354436	0.000000	0.000000	27.318902	5.207182	-0.124030	17.485285	-2.974299	67.131299	41.212199	34.189799	4.184371	5.032206	16.788752	-8.108175	66.885633	43.898482	65.954910	4.001047	13.129346
0.116667	-3.247364	-3.016835	92.094765	0.187660	0.823955	0.554448	8.466581	-3.456132	0.768865	16.355641	0.285460	41.416514	-3.562944	0.000000	7.000167	4.128830	20.411454	8.033992	0.140220	39.357324	-16.245292	0.000000	0.407269	-0.368834	-0.240035	0.756340	-0.490549	-0.255037	0.669103	-0.896782	-0.255037	0.465468	-0.896782	-0.210030	0.378190	-0.752126	-0.195028	0.232714	-0.571324	-0.180026	2.909085	-4.172322	-1.335001	0.000000	0.000000	27.264710	5.126906	0.067762	17.367817	-3.020997	66.654889	41.115453	35.764540	3.982842	4.706454	16.909002	-8.312918	65.965307	44.492439	68.281747	4.023761	13.462560
0.133333	-3.191598	-3.017936	92.068546	0.187651	0.824043	0.554749	8.455493	-3.389689	0.870213	16.259560	0.283783	41.320876	-3.523379	0.000000	7.016055	4.066197	20.515028	8.056993	0.140621	39.332954	-16.323538	0.000000	0.405871	-0.358349	-0.238093	0.753743	-0.476604	-0.252974	0.666806	-0.871290	-0.252974	0.463870	-0.871290	-0.208331	0.376892	-0.730745	-0.193450	0.231915	-0.555083	-0.178570	2.899097	-4.053715	-1.324201	0.000000	0.000000	27.203908	5.066227	0.213863	17.327218	-3.019095	66.243671	40.995875	38.089059	3.835790	4.422924	17.095687	-8.453305	65.424848	44.933674	70.838714	3.924362	13.637799
